<svg id="Calque_1" data-name="Calque 1" xmlns="http://www.w3.org/2000/svg" xmlns:xlink="http://www.w3.org/1999/xlink" viewBox="0 0 40 49.6"><defs><style>.cls-1{fill:url(#Dégradé_sans_nom_26);}.cls-2{fill:url(#Dégradé_sans_nom_24);}</style><radialGradient id="Dégradé_sans_nom_26" cx="24.52" cy="27.32" r="2.5" gradientUnits="userSpaceOnUse"><stop offset="0.02" stop-color="#fff"/><stop offset="0.2" stop-color="#fffdfa"/><stop offset="0.42" stop-color="#fef7ec"/><stop offset="0.65" stop-color="#fdedd4"/><stop offset="0.9" stop-color="#fbdfb4"/><stop offset="0.98" stop-color="#fadaa7"/></radialGradient><radialGradient id="Dégradé_sans_nom_24" cx="25" cy="25.14" r="22.53" gradientUnits="userSpaceOnUse"><stop offset="0.02" stop-color="#fff"/><stop offset="0.25" stop-color="#f1ad2b"/><stop offset="0.38" stop-color="#ef801a"/><stop offset="0.54" stop-color="#d92c16"/><stop offset="0.82" stop-color="#9a1d71"/><stop offset="1" stop-color="#462772"/></radialGradient></defs><title>phoenix-fonddegrade-corps-t</title><path class="cls-1" d="M24.72,24.33l-.16,0c-.28.13-1.5.83-1.86,3.19a2.18,2.18,0,0,0,1.92,2.82s2.08-.15,1.72-2.82C26,25.25,25,24.51,24.72,24.33Z" transform="translate(-5 -0.34)"/><path class="cls-2" d="M44.34,23.45C43.66,17.4,37,7.69,37,7.69s-6.25-9-14.32-7.08c-6,1.44-11.09,8.71-11.09,8.71C9.18,12.13,6.71,18.62,6,20.94a38.23,38.23,0,0,0-1,7.53C5.31,49.89,22.68,50,25.42,49.93c2.63.11,19.28,0,19.58-21.46A42.57,42.57,0,0,0,44.34,23.45Zm-15.81.33a1.61,1.61,0,0,1-.88-1,7.85,7.85,0,0,1-.1-2.53,9.5,9.5,0,0,1,1.18,2.24A1.67,1.67,0,0,1,28.53,23.78ZM23.88,1.41A5.21,5.21,0,0,0,26.8,4.3c-.86-.08-1.7-.12-2.21-.81A3.93,3.93,0,0,1,23.88,1.41ZM23.22,3.6a1.28,1.28,0,0,0,.88.57,3.42,3.42,0,0,1-.59-3l.14,1.21c.31,1.16.73,1.6,2,2.05A9.42,9.42,0,0,1,27.06,5a2,2,0,0,1,1.21,2.2,3,3,0,0,0,0,1.33,2.58,2.58,0,0,1,0,.84,4.24,4.24,0,0,0-.39-.74,1.48,1.48,0,0,1-.4-1.06,4.1,4.1,0,0,0,0-.5,1.53,1.53,0,0,0-1-1.35,16.22,16.22,0,0,0-1.69-.62A2.74,2.74,0,0,1,23,3.48l-.2-.78C22.91,3,23,3.31,23.22,3.6ZM20.78,22.27A9.45,9.45,0,0,1,21.92,20a8.17,8.17,0,0,1-.1,2.53,1.59,1.59,0,0,1-.84,1A1.74,1.74,0,0,1,20.78,22.27Zm4,25.44S24,42.27,24,39.28a11.85,11.85,0,0,1,.51-4.17,13.16,13.16,0,0,1,.67,4.15C25.32,42.07,24.75,47.71,24.75,47.71ZM43,29.7a4.41,4.41,0,0,1-3.84,2.93,13,13,0,0,1-5.75-.49,14.73,14.73,0,0,1-2.78-1.24c-.29-.16-1.05-.82-1.35-.77s-.21.21-.19.42l.06.16,2.38,5.84a8,8,0,0,1-3-3.1,5.26,5.26,0,0,1-.71-3.13.5.5,0,0,1,0-.11l-.23.34a7.52,7.52,0,0,0-.64,5.79c.43,1.73,2.16,2.59,3.59,3.52a5,5,0,0,1-4.21-2.6,9.79,9.79,0,0,0,1.16,3.33,7.55,7.55,0,0,0,2.83,2.46,6.68,6.68,0,0,0,1.8.73,4.72,4.72,0,0,0,2.76-.05,1.16,1.16,0,0,0,.67-1.23c-.2-.71-1-.54-1,.17-.39-1,.35-1.84,1.31-1.18a1.58,1.58,0,0,1,.08,2.42,5.75,5.75,0,0,0,1.48-.38,4.06,4.06,0,0,0,1.76-1.9,3.09,3.09,0,0,0,0-2.67,1,1,0,0,0-1.69-.12c-.29.46.12,1,.45,1.33-1-.39-2.14-1.42-1.32-2.54A2.58,2.58,0,0,1,39,36.77a2.92,2.92,0,0,1,2.45,2.74A5.64,5.64,0,0,1,38,44.7c-1.73.72-3.75.43-5.59.38.33.68,1.65.77,2.3.83A10.9,10.9,0,0,1,28,43.6a4.85,4.85,0,0,1-1.57-2.29c-.56,1.29.63,3.07,1.32,4a21.33,21.33,0,0,0,2.4,2.71,8.49,8.49,0,0,0-1.39-.58c-.86-.33-2,.24-2.45-.76a38.11,38.11,0,0,1-.72-3.9c-.14-1.73.43-3.46.29-5.18a5,5,0,0,0-1.27-3.1,4.34,4.34,0,0,0-1.15,3.64,28,28,0,0,1,0,4.93A15.35,15.35,0,0,1,23,46.72a1.15,1.15,0,0,1-.58.57,4.5,4.5,0,0,0-1.8.26,9.75,9.75,0,0,0-1.37.59,20.38,20.38,0,0,0,2.3-2.7c.68-1,1.81-2.76,1.27-4a4.91,4.91,0,0,1-1.45,2.25A10.25,10.25,0,0,1,14.92,46c.64-.06,1.89-.17,2.21-.84a9.07,9.07,0,0,1-5.79-.61A7.2,7.2,0,0,1,8.6,41.09a3.41,3.41,0,0,1,.29-2.88c.87-1.44,3-2,4.17-.53.81,1.1-.22,2.17-1.24,2.57.32-.32.7-.86.43-1.32a.94.94,0,0,0-1.62.11,3.19,3.19,0,0,0,0,2.67,4,4,0,0,0,1.68,1.91,5.73,5.73,0,0,0,1.42.38,1.63,1.63,0,0,1,0-2.4c.76-.57,1.41-.3,1.44.41a1.72,1.72,0,0,1-.13.48c0-.42-.34-.39-.61-.39a1.09,1.09,0,0,0-.14,1.44c1,.87,2.59.44,3.75.15A7.46,7.46,0,0,0,23,37.34C22.38,39,20.56,39.72,19,40c1.32-1.16,3.05-1.88,3.48-3.61a7.06,7.06,0,0,0-.6-5.65,1.3,1.3,0,0,0-.27-.4C21.87,33,20,35.2,18,36.63l2.34-6a.35.35,0,0,0-.18-.43c-.29-.05-1,.61-1.29.77a14.06,14.06,0,0,1-2.67,1.24,12.07,12.07,0,0,1-5.5.5A4.25,4.25,0,0,1,7,29.78a4.31,4.31,0,0,1,.57-3.65l.47-.58C7.39,27,7.52,29.2,9.18,29.63a2.15,2.15,0,0,0-.58-2.34,1.18,1.18,0,0,1-.32-.23,1,1,0,0,1,.28.18c1.92,1.25,3.91,2.81,6.27,2.55,1.6-.13,3.14-.71,4.75-.76a7.32,7.32,0,0,0-2.68.07,18.94,18.94,0,0,1-2.9.26A6.68,6.68,0,0,1,8.18,24a10.05,10.05,0,0,1,.48-4.8A6.3,6.3,0,0,1,11,15.73a6.94,6.94,0,0,0-.81,6.5c1.07-.64.74-2.32.43-3.31a8.47,8.47,0,0,1,1.29,5.15,5.29,5.29,0,0,0-.17-3.59A15.44,15.44,0,0,0,13,23.58a10.25,10.25,0,0,0,2.43,2.28,18,18,0,0,0,4,1.55c-2.72-1.24-5.89-2.68-7.14-5.85A13.54,13.54,0,0,1,13.6,9a6.71,6.71,0,0,1,3.93-2.79A3.19,3.19,0,0,1,18,6.1a6.23,6.23,0,0,0-2.26,2.07,8.18,8.18,0,0,0-1.15,2.53c-.15.59-.57,2-.12,2.52.68.8,1.6-.37,1.85-1a4.31,4.31,0,0,0,.11-3.08,5.83,5.83,0,0,1,1.34,2.48c.43,1.74-.24,3.12-1.06,4.59-.37.67-1.54,2.42-.89,3.17a7.31,7.31,0,0,1,2.3-2.8,6.26,6.26,0,0,0-.91,3.94c2.27-.27,2.72-3.1,2.64-5.08,0-.14,0-.26,0-.28a2,2,0,0,1,.1.3c.07.25.08.28.06.2a10.61,10.61,0,0,1-.57,6.88c-.69,1.44.69,2.88,2.07,2.88a1.84,1.84,0,0,0,1.29-.95s.38-.9.38-.9c.95-1.73.75-3.25.15-5.58-1.45-3.32-2-7.06-.58-10.52.43-.87,1-2,2-2a2.24,2.24,0,0,1,2.45,2.36c-.8-.4-1.82-.72-2.11-1.68-.2.33-.63.33-.78.47-1.29,1.3-1.15,3.17-.86,4.9.58,4,3.6,7.64,2.64,11.85-.09.46.49,1,.49,1a1.91,1.91,0,0,0,1.34.95c1.44,0,2.88-1.44,2.16-2.88a10.18,10.18,0,0,1-.59-6.88c0,.07,0,.05.06-.21l.1-.29s0,.13,0,.27c-.09,2,.38,4.81,2.75,5.09a6,6,0,0,0-.95-3.94,7.3,7.3,0,0,1,2.4,2.8c.68-.76-.54-2.51-.93-3.18-.86-1.46-1.56-2.84-1.1-4.58a5.62,5.62,0,0,1,1.4-2.49,4.11,4.11,0,0,0,.11,3.08c.26.61,1.22,1.78,1.93,1,.47-.53,0-1.93-.13-2.53A8.26,8.26,0,0,0,33.9,8.08,6.54,6.54,0,0,0,31.54,6l.46.13a7.09,7.09,0,0,1,4.1,2.8,13,13,0,0,1,1.3,12.54c-1.3,3.17-4.61,4.61-7.46,5.84a30.44,30.44,0,0,0,3.37-1.07,10.56,10.56,0,0,0,3.37-2.75c.72-1,.7-1.69,1.41-3.11a5.14,5.14,0,0,0-.17,3.6,8.09,8.09,0,0,1,1.35-5.15c-.33,1-.67,2.67.44,3.31a6.71,6.71,0,0,0-.84-6.5,6.31,6.31,0,0,1,2.39,3.47,9.74,9.74,0,0,1,.5,4.81,6.86,6.86,0,0,1-6.08,5.34,20.28,20.28,0,0,1-3-.25,8.24,8.24,0,0,0-2.8-.08c1.68,0,3.29.63,5,.76,2.46.27,4.54-1.29,6.54-2.54a.83.83,0,0,1,.3-.18,1.46,1.46,0,0,1-.34.23,2.07,2.07,0,0,0-.6,2.34c1.73-.43,1.87-2.59,1.15-4.08l.5.57A4.21,4.21,0,0,1,43,29.7ZM35.3,33.3A2.22,2.22,0,0,1,34.06,35,2.34,2.34,0,0,1,31,34a2.12,2.12,0,0,1,.08-2.14,2.31,2.31,0,0,0,.25.74,2.61,2.61,0,0,0,3.44,1.09A2.72,2.72,0,0,0,35.3,33.3Zm-20.84-.2a2.28,2.28,0,0,0,.53.37,2.47,2.47,0,0,0,3.32-1.08,2.53,2.53,0,0,0,.24-.75,2.24,2.24,0,0,1,.08,2.15,2.22,2.22,0,0,1-4.17-.69Z" transform="translate(-5 -0.34)"/></svg>